<svg xmlns="http://www.w3.org/2000/svg" xmlns:serif="http://www.serif.com/" fill-rule="evenodd" stroke-linejoin="round" stroke-miterlimit="1.41421" clip-rule="evenodd" viewBox="0 0 376 376"><path fill="none" d="M0 0h375.467v375.467H0z"/><clipPath id="a"><path d="M0 0h375.467v375.467H0z" serif:id="Artboard1"/></clipPath><g fill="#00f" fill-rule="nonzero" clip-path="url(#a)"><path d="M188.785 149.171c-1.494-2.73-1.391-6.058.281-8.695l51.397-80.743h-47.736L125.528 179.2h42.001c2.85 0 5.504 1.425 7.091 3.789 1.579 2.372 1.886 5.376.794 8.004l-36.07 87.014L245.985 153.6H196.27c-3.116 0-5.983-1.707-7.485-4.429z"/><path d="M187.733 0C84.216 0 0 84.216 0 187.733c0 103.509 84.216 187.734 187.733 187.734 103.518 0 187.734-84.224 187.734-187.734C375.466 84.216 291.25 0 187.733 0zm83.277 150.613l-153.6 179.199c-1.665 1.955-4.062 2.987-6.486 2.987-1.519 0-3.072-.409-4.454-1.262-3.575-2.201-5.026-6.665-3.422-10.539l51.704-124.732h-43.819c-3.029 0-5.828-1.612-7.364-4.232-1.536-2.611-1.562-5.845-.068-8.49l76.8-136.533c1.51-2.679 4.352-4.344 7.432-4.344h68.268c3.115 0 5.982 1.698 7.483 4.421 1.494 2.731 1.391 6.058-.281 8.695l-51.388 80.751h52.719c3.337 0 6.358 1.937 7.748 4.967 1.39 3.019.904 6.587-1.272 9.112z"/></g></svg>
