<svg width="64" height="64" viewBox="0 0 64 64" fill="none" xmlns="http://www.w3.org/2000/svg">
<path d="M30.0154 1.13452C31.2452 0.431816 32.7548 0.431817 33.9846 1.13452L57.9846 14.8488C59.2309 15.561 60 16.8864 60 18.3218V45.6792C60 47.1146 59.2309 48.44 57.9846 49.1522L33.9846 62.8665C32.7548 63.5692 31.2452 63.5692 30.0154 62.8665L6.01544 49.1522C4.76914 48.44 4 47.1146 4 45.6792V18.3218C4 16.8864 4.76914 15.561 6.01544 14.8488L30.0154 1.13452Z" fill="white"/>
<path opacity="0.25" d="M7 18L32 4V19L24 21L19 30.044L20 39L7 46V18Z" fill="#2B5CF2"/>
<path opacity="0.5" d="M57 18L32 4V19L41 22L45 30L44 38L57 46V18Z" fill="#2B5CF2"/>
<path opacity="0.75" d="M32 60.0001L7 45.9999L20 38.9999L26 44.0001L32 45.0001L39 43.0001L44 38.0002L57 46.0001L32 60.0001Z" fill="#2B5CF2"/>
<path d="M31.3662 2.70993C31.7773 2.57263 32.2227 2.57263 32.6338 2.70993C32.7568 2.75104 32.8771 2.80437 32.9922 2.87009L33 2.87399L56.9922 16.5849C57.0311 16.6072 57.0694 16.6307 57.1064 16.6552C57.1435 16.6798 57.1798 16.7056 57.2148 16.7324C57.2179 16.7347 57.2206 16.7378 57.2236 16.7402C57.2746 16.7797 57.3235 16.8213 57.3701 16.8652C57.3793 16.8739 57.3884 16.8827 57.3975 16.8916C57.4414 16.9346 57.4828 16.9797 57.5225 17.0263C57.5329 17.0387 57.5435 17.0509 57.5537 17.0634C57.5938 17.113 57.6309 17.1647 57.666 17.2177C57.675 17.2313 57.6837 17.245 57.6924 17.2588C57.7639 17.3728 57.8237 17.4937 57.8711 17.6201C57.8749 17.6302 57.8792 17.6402 57.8828 17.6504C57.9026 17.706 57.9187 17.7629 57.9336 17.8203C57.9394 17.8427 57.9452 17.865 57.9502 17.8877C57.9629 17.945 57.9738 18.0028 57.9814 18.0615C57.9839 18.0803 57.9854 18.0992 57.9873 18.1181C57.9933 18.1766 57.9982 18.2355 57.999 18.2949H57.998C57.9982 18.3037 58 18.3125 58 18.3213V45.6787C57.9999 46.1301 57.8472 46.5599 57.5791 46.9052C57.4803 47.0326 57.3649 47.1477 57.2363 47.249C57.1596 47.3094 57.0785 47.3657 56.9922 47.415L32.9922 61.1299C32.7231 61.2835 32.4272 61.3705 32.1279 61.3896C32.0428 61.3951 31.9572 61.3951 31.8721 61.3896C31.5728 61.3705 31.2769 61.2835 31.0078 61.1299L7.00781 47.415C6.92153 47.3657 6.84042 47.3094 6.76367 47.249C6.63512 47.1478 6.51979 47.0326 6.4209 46.9052C6.30506 46.756 6.21126 46.5907 6.1416 46.415C6.09929 46.3083 6.0655 46.1975 6.04199 46.084C6.03841 46.0666 6.03536 46.0487 6.03223 46.0312C6.02759 46.0054 6.02217 45.9792 6.01855 45.9531C6.01661 45.939 6.01533 45.9243 6.01367 45.9101C6.00575 45.842 6.00086 45.7725 6 45.7031V18.2949L6.00488 18.1875C6.04953 17.5222 6.4238 16.9187 7.00781 16.5849L31 2.87399L31.0078 2.87009C31.1229 2.80437 31.2432 2.75104 31.3662 2.70993ZM9.03711 46.2715L31 58.8213V45.9638C26.5692 45.6511 22.7078 43.2776 20.3691 39.7949L9.03711 46.2715ZM43.6299 39.7949C41.2912 43.2774 37.4306 45.6511 33 45.9638V58.8213L54.9619 46.2715L43.6299 39.7949ZM4.04785 46.2871C4.04395 46.2618 4.03856 46.2363 4.03516 46.2109L4.0332 46.1943C4.03722 46.2252 4.0431 46.2563 4.04785 46.2871ZM59.9648 46.2109C59.9614 46.2363 59.9551 46.2618 59.9512 46.2871C59.9559 46.2563 59.9628 46.2253 59.9668 46.1943L59.9648 46.2109ZM44.6221 25.9375C45.5048 27.7719 46 29.828 46 32C46 34.1707 45.5049 36.2259 44.623 38.0595L56 44.5605V19.4365L44.6221 25.9375ZM8 44.5595L19.376 38.0586C18.4945 36.2252 18 34.1703 18 32C18 29.8285 18.4946 27.7726 19.377 25.9384L8 19.4375V44.5595ZM21.1211 26.9345C20.4032 28.4737 20 30.1895 20 32C20 33.8092 20.4031 35.524 21.1201 37.0625C21.4036 37.6707 21.736 38.2512 22.1133 38.7988C24.0997 41.682 27.3125 43.6537 31 43.958V32.58L21.1211 26.9345ZM33 32.58V43.958C36.6873 43.6538 39.8993 41.6818 41.8857 38.7988C42.2631 38.2512 42.5954 37.6707 42.8789 37.0625C43.5961 35.5239 44 33.8094 44 32C44 30.1894 43.596 28.4738 42.8779 26.9345L33 32.58ZM32 20C31.6759 20 31.3547 20.0128 31.0371 20.0381C27.3352 20.332 24.1075 22.3068 22.1143 25.1982L32 30.8476L41.8838 25.1982C39.8903 22.3071 36.6638 20.3317 32.9619 20.0381C32.6446 20.0129 32.3238 20 32 20ZM9.03809 17.7265L20.3711 24.2021C22.71 20.7211 26.5706 18.3487 31 18.0361V5.1777L9.03809 17.7265ZM33 18.0361C37.4292 18.3487 41.289 20.7214 43.6279 24.2021L54.96 17.7265L33 5.1777V18.0361ZM58.8613 15.5283C58.8551 15.5219 58.8481 15.5161 58.8418 15.5097H58.8438C58.8497 15.5158 58.8554 15.5222 58.8613 15.5283ZM58.6328 15.3105C58.6431 15.3196 58.6529 15.3297 58.6631 15.3388C58.6225 15.3028 58.5812 15.267 58.5391 15.2324C58.5705 15.2582 58.6023 15.2838 58.6328 15.3105ZM58.2129 14.9883C58.2344 15.0026 58.2551 15.0185 58.2764 15.0332C58.2389 15.0072 58.2006 14.9818 58.1621 14.957C58.1788 14.9677 58.1964 14.9773 58.2129 14.9883ZM6.01562 14.8486L5.78711 14.9892C5.8613 14.94 5.93762 14.8922 6.01562 14.8476L30.0156 1.13376L6.01562 14.8486Z" fill="#2B5CF2"/>
</svg>
