<svg xmlns="http://www.w3.org/2000/svg" viewBox="0 0 26 15"><path d="M26 0h-2.7c-3.6.6-6.8 2.5-9 5.2.6-1.6.9-3.4.9-5.2h-.5c0 2.5-.6 4.9-1.7 7-1.1-2.1-1.8-4.4-1.8-7h-.5c0 1.8.3 3.6.9 5.2C9.4 2.5 6.3.6 2.7 0H0v.5c1.1 2.1 1.8 4.4 1.8 7s-.6 4.9-1.8 7v.5h2.7c3.6-.6 6.8-2.5 9-5.2-.6 1.6-.9 3.4-.9 5.2h.5c0-2.5.6-4.9 1.8-7 1.1 2.1 1.7 4.4 1.7 7h.5c0-1.8-.3-3.6-.9-5.2 2.3 2.7 5.4 4.6 9 5.2H26v-.5c-1.1-2.1-1.8-4.4-1.8-7s.6-4.9 1.8-7V0zM2.2 7.5c0-1.8-.3-3.6-.9-5.2 2.3 2.7 5.4 4.6 9 5.2-3.6.6-6.8 2.5-9 5.2.6-1.6.9-3.4.9-5.2zM.5 14.7c2.5-4 6.9-6.8 12-7-2.5 4.1-6.9 6.9-12 7zM.5.3c5.1.2 9.5 2.9 12 7-5.1-.2-9.5-3-12-7zm13 7.5c5.1.2 9.5 2.9 12 7-5.1-.2-9.5-3-12-7zm10.3-.3c0 1.8.3 3.6.9 5.2-2.3-2.7-5.4-4.6-9-5.2 3.6-.6 6.8-2.5 9-5.2-.6 1.6-.9 3.4-.9 5.2zm-10.3-.3c2.5-4 6.9-6.8 12-7-2.5 4.1-6.9 6.9-12 7z"/></svg>