<svg viewBox="0 0 32 32" xmlns="http://www.w3.org/2000/svg" aria-hidden>
<path fill="var(--color-text)" d="M16.1318 0.308289C16.4297 0.327953 16.7242 0.414945 16.9922 0.568054L28.9922 7.4245C29.6152 7.78062 30 8.44422 30 9.1618V22.8395C29.9998 23.557 29.6151 24.2209 28.9922 24.5768L16.9922 31.4333C16.8359 31.5226 16.6698 31.5866 16.5 31.6306V31.6325C16.4458 31.6465 16.3909 31.6563 16.3359 31.6657C16.317 31.6689 16.2983 31.6728 16.2793 31.6755C16.2183 31.6841 16.1571 31.6891 16.0957 31.6921C16.0739 31.6931 16.0521 31.6947 16.0303 31.695C15.9703 31.6959 15.9104 31.6936 15.8506 31.6891C15.8317 31.6877 15.8128 31.6862 15.7939 31.6843C15.7324 31.6779 15.6713 31.6681 15.6104 31.6559C15.591 31.6521 15.5719 31.6477 15.5527 31.6432C15.5353 31.6392 15.5174 31.637 15.5 31.6325V31.6286C15.3723 31.5956 15.2457 31.5545 15.125 31.4958L15.0078 31.4333L3.00781 24.5768C2.38487 24.2209 2.00025 23.557 2 22.8395V9.1618C2 8.89806 2.0528 8.64153 2.14941 8.40497C2.16859 8.35795 2.18927 8.31164 2.21191 8.2663L2.23828 8.21356C2.24243 8.20585 2.24771 8.19876 2.25195 8.1911C2.28326 8.13457 2.31686 8.07933 2.35352 8.02606C2.36319 8.01201 2.37277 7.99788 2.38281 7.98407C2.42195 7.93021 2.4643 7.87865 2.50879 7.8288C2.62122 7.70279 2.74996 7.59016 2.89355 7.49481L3.00781 7.4245L15.0078 0.568054C15.2755 0.415112 15.5696 0.328077 15.8672 0.308289C15.872 0.307815 15.8769 0.306633 15.8818 0.306335H16.1182C16.1228 0.306612 16.1273 0.307859 16.1318 0.308289ZM3 22.8503L7.51465 20.2712C7.75056 20.1364 8.05052 20.2288 8.18555 20.4645C8.32035 20.7007 8.24688 21.0054 8.01074 21.1403L3.51074 23.7126L15.5 30.5622V16.2907L3 9.14813V22.8503ZM16.5 16.2907V30.5622L28.4883 23.7126L23.9873 21.1413C23.751 21.0063 23.6773 20.7007 23.8125 20.4645C23.9478 20.2287 24.2483 20.1364 24.4844 20.2712L28.999 22.8513C28.9991 22.8475 28.9999 22.8433 29 22.8395V9.1618C29 9.15738 28.9991 9.15255 28.999 9.14813L16.5 16.2907ZM8.25781 13.9821C8.33691 13.6787 8.68469 13.5476 8.95703 13.7028L14.248 16.7263C14.4037 16.8152 14.4999 16.9806 14.5 17.1599V23.2536C14.4999 23.5671 14.2138 23.804 13.9111 23.7224C10.506 22.8038 8 19.6952 8 15.9997C8.00002 15.3026 8.08983 14.6266 8.25781 13.9821ZM23.042 13.7028C23.3143 13.5476 23.662 13.6787 23.7412 13.9821C23.9095 14.6266 24 15.3025 24 15.9997C24 19.6952 21.494 22.8038 18.0889 23.7224C17.7862 23.804 17.5001 23.5671 17.5 23.2536V17.1599C17.5001 16.9806 17.5963 16.8152 17.752 16.7263L23.042 13.7028ZM16.5 6.51434C16.4995 6.78566 16.2714 7.00068 16 7.00067C15.7286 7.00066 15.5005 6.78566 15.5 6.51434V1.43817L3.51172 8.28778L16 15.4235L28.4873 8.28778L16.5 1.43817V6.51434ZM16 7.99969C18.2143 7.99969 20.2177 8.90026 21.666 10.3542C21.8875 10.5765 21.8233 10.9436 21.5508 11.0993L16.248 14.1296C16.0943 14.2174 15.9057 14.2174 15.752 14.1296L10.4482 11.0983C10.1757 10.9426 10.1115 10.5766 10.333 10.3542C11.7814 8.90007 13.7854 7.99969 16 7.99969Z" />
</svg>
