<svg viewBox="0 0 24 24" fill="none" xmlns="http://www.w3.org/2000/svg" aria-hidden>
  <title>W3C</title>
  <path d="M20.9394 15.3814C20.4828 15.0155 19.816 15.0933 19.4536 15.5543C19.0047 16.1259 18.5968 16.4698 18.1321 16.6701C17.2747 17.0385 16.5481 16.8828 15.8455 16.1799C15.157 15.4913 14.4862 14.7409 13.8355 14.0136C13.5171 13.6578 13.1983 13.3013 12.8753 12.9489C12.3233 12.3472 11.7685 11.7476 11.2141 11.1475L11.1653 11.0947C9.95962 9.79172 8.71342 8.44421 7.5113 7.09075C6.55809 6.01713 5.08531 5.48537 3.66842 5.70045C2.22033 5.9191 1.04941 6.85488 0.370981 8.33489C-0.28273 9.76022 -0.0614864 11.3799 0.947615 12.5616C2.72284 14.6405 4.22036 16.3593 5.97438 17.976C6.69165 18.6367 7.55956 18.9884 8.48393 18.9932C9.08354 18.9961 9.98734 18.9279 10.9093 18.301C11.313 18.0265 11.6889 17.7443 11.8543 17.3136C12.0227 16.8727 11.8655 16.3659 11.4713 16.0802C11.0888 15.802 10.5869 15.8216 10.2221 16.1276C10.1762 16.1663 10.1262 16.2108 10.0715 16.259C9.49836 16.7658 8.78519 17.3967 7.33123 16.3427C5.9991 15.3767 4.96764 14.1105 3.77256 12.6442C3.38305 12.1665 2.97999 11.6722 2.54928 11.1671C2.08912 10.6282 1.98968 9.88681 2.28978 9.23143C2.55163 8.66107 3.05707 7.95166 3.98205 7.81204C4.68282 7.70568 5.46835 7.98848 5.93732 8.5161C7.14944 9.88144 8.40509 11.2397 9.61954 12.552C10.1886 13.167 10.7575 13.7825 11.3235 14.3999C11.6407 14.7457 11.9538 15.0956 12.2715 15.4509C12.9387 16.1966 13.6284 16.9672 14.3569 17.6962C15.672 19.0122 17.3065 19.3455 18.9618 18.6343C19.7566 18.2915 20.4398 17.7348 21.1106 16.881C21.4724 16.4206 21.396 15.748 20.9394 15.3814Z" fill="currentColor"/>
  <path d="M22.5939 9.45032C23.2775 9.12294 23.8154 8.5068 23.8666 7.75938C23.9966 6.46179 22.9387 5.22003 21.3823 5.02812C20.4267 4.90573 19.54 5.19152 18.9116 5.71733C18.5756 5.99955 18.485 6.52181 18.7762 6.89017C19.0946 7.27338 19.4618 7.3405 20.0625 7.00723C20.2779 6.88365 20.6016 6.78085 20.9575 6.80579C21.6289 6.85276 21.8214 7.46352 21.8025 7.74097C21.7995 7.78198 21.8036 8.72783 20.8581 8.66189L20.5015 8.63696C20.1043 8.6096 19.7072 8.98452 19.6778 9.41347C19.646 9.86977 19.9766 10.2684 20.388 10.2976L20.8263 10.3279C22.0326 10.4123 21.9067 11.4461 21.8814 11.6113C21.8578 12.0866 21.1023 12.8927 19.7548 11.976C19.2976 11.6653 16.0366 7.52946 16.0366 7.52946C14.4915 5.51235 11.8661 5.15706 9.79426 6.68519C9.56656 6.85333 9.4165 7.10108 9.37296 7.38332C9.33 7.66493 9.39767 7.94716 9.56419 8.17707C9.73066 8.407 9.97606 8.55852 10.2549 8.60248C10.5356 8.64645 10.814 8.57753 11.0417 8.40938C12.455 7.36668 13.7148 7.98813 14.3626 8.83421C14.3626 8.83421 17.8636 13.3812 18.7651 13.863C19.35 14.1756 19.9608 14.3562 20.5815 14.3996C22.4868 14.5326 23.6471 13.4727 23.9602 12.0206C24.1655 11.0688 23.5559 9.87934 22.5939 9.45032Z" fill="currentColor"/>
</svg>
